<svg width="1400" height="420" viewBox="0 0 1400 420" fill="none" xmlns="http://www.w3.org/2000/svg">
  <defs>
    <linearGradient id="sky" x1="700" y1="0" x2="700" y2="420" gradientUnits="userSpaceOnUse">
      <stop stop-color="#0B1020"/>
      <stop offset="1" stop-color="#111827"/>
    </linearGradient>
    <linearGradient id="windowGlow" x1="0" y1="0" x2="1" y2="1">
      <stop stop-color="#93C5FD" stop-opacity="0.95"/>
      <stop offset="1" stop-color="#34D399" stop-opacity="0.55"/>
    </linearGradient>
    <linearGradient id="deskLight" x1="520" y1="170" x2="1120" y2="390" gradientUnits="userSpaceOnUse">
      <stop stop-color="#F8FAFC" stop-opacity="0.15"/>
      <stop offset="1" stop-color="#38BDF8" stop-opacity="0.05"/>
    </linearGradient>
    <filter id="soft" x="-20%" y="-20%" width="140%" height="140%">
      <feGaussianBlur stdDeviation="18"/>
    </filter>
  </defs>

  <rect width="1400" height="420" rx="28" fill="url(#sky)"/>

  <circle cx="1160" cy="78" r="120" fill="#1D4ED8" fill-opacity="0.12" filter="url(#soft)"/>
  <circle cx="1040" cy="308" r="180" fill="#10B981" fill-opacity="0.12" filter="url(#soft)"/>
  <circle cx="320" cy="72" r="100" fill="#F59E0B" fill-opacity="0.08" filter="url(#soft)"/>

  <rect x="612" y="54" width="392" height="220" rx="12" fill="#0F172A" stroke="#334155"/>
  <rect x="638" y="82" width="156" height="164" rx="6" fill="#111827" stroke="#1F2937"/>
  <rect x="814" y="82" width="156" height="164" rx="6" fill="#111827" stroke="#1F2937"/>
  <rect x="662" y="104" width="108" height="104" rx="4" fill="#94A3B8" fill-opacity="0.18"/>
  <rect x="838" y="104" width="108" height="104" rx="4" fill="#94A3B8" fill-opacity="0.18"/>
  <path d="M638 164H790" stroke="#64748B" stroke-width="4" stroke-linecap="round"/>
  <path d="M814 156H970" stroke="#64748B" stroke-width="4" stroke-linecap="round"/>
  <circle cx="755" cy="132" r="16" fill="url(#windowGlow)" fill-opacity="0.7"/>
  <circle cx="928" cy="128" r="20" fill="#F59E0B" fill-opacity="0.5"/>

  <rect x="94" y="250" width="1158" height="92" rx="18" fill="url(#deskLight)"/>
  <rect x="228" y="302" width="940" height="8" rx="4" fill="#1F2937"/>
  <rect x="310" y="220" width="168" height="92" rx="16" fill="#111827" stroke="#334155"/>
  <rect x="346" y="180" width="106" height="68" rx="10" fill="#0F172A" stroke="#475569"/>
  <rect x="368" y="192" width="62" height="38" rx="6" fill="url(#windowGlow)" fill-opacity="0.85"/>
  <path d="M388 248L402 302" stroke="#334155" stroke-width="10" stroke-linecap="round"/>
  <path d="M320 272H465" stroke="#475569" stroke-width="12" stroke-linecap="round"/>
  <circle cx="535" cy="272" r="32" fill="#F8FAFC" fill-opacity="0.08"/>
  <path d="M520 272L552 272" stroke="#CBD5E1" stroke-width="4" stroke-linecap="round"/>
  <path d="M536 256L536 288" stroke="#CBD5E1" stroke-width="4" stroke-linecap="round"/>

  <path d="M118 126C252 88 352 88 472 122" stroke="#334155" stroke-width="3" stroke-linecap="round" stroke-dasharray="5 10"/>
  <path d="M110 156C260 124 384 120 496 148" stroke="#475569" stroke-width="2.5" stroke-linecap="round" stroke-dasharray="3 9"/>

  <text x="88" y="92" fill="#F8FAFC" font-family="Segoe UI, Arial, sans-serif" font-size="54" font-weight="700">Aolinge</text>
  <text x="88" y="132" fill="#CBD5E1" font-family="Segoe UI, Arial, sans-serif" font-size="22" font-weight="500">Desktop tools · automation · release packaging</text>
  <text x="88" y="170" fill="#94A3B8" font-family="Segoe UI, Arial, sans-serif" font-size="18" font-weight="400">Chongqing University · Chongqing City · 1930668092@qq.com</text>
</svg>
